<mxfile host="app.diagrams.net" modified="2024-03-21T09:31:46.776Z" agent="Mozilla/5.0 (Windows NT 10.0; Win64; x64) AppleWebKit/537.36 (KHTML, like Gecko) Chrome/122.0.0.0 Safari/537.36 Edg/122.0.0.0" etag="oyJmabVfraFHGqJRJ4Y-" version="24.0.7" type="github">
  <diagram name="Page-1" id="CA1CGzCP61-nOpN43Mkm">
    <mxGraphModel dx="2092" dy="588" grid="1" gridSize="10" guides="1" tooltips="1" connect="1" arrows="1" fold="1" page="1" pageScale="1" pageWidth="850" pageHeight="1100" math="0" shadow="0">
      <root>
        <mxCell id="0" />
        <mxCell id="1" parent="0" />
        <mxCell id="rhQnzHztRZclSPktE8nI-1" value="Customers" style="shape=umlActor;verticalLabelPosition=bottom;verticalAlign=top;html=1;outlineConnect=0;" vertex="1" parent="1">
          <mxGeometry x="-26" y="235" width="30" height="60" as="geometry" />
        </mxCell>
        <mxCell id="rhQnzHztRZclSPktE8nI-2" value="&lt;b&gt;Angular Frontend&amp;nbsp; (E5: 3rd Party&amp;nbsp; =&amp;gt; Collab Design)&lt;/b&gt;" style="whiteSpace=wrap;html=1;aspect=fixed;fillColor=#d5e8d4;strokeColor=#82b366;" vertex="1" parent="1">
          <mxGeometry x="64" y="215" width="130" height="130" as="geometry" />
        </mxCell>
        <mxCell id="rhQnzHztRZclSPktE8nI-3" value="" style="endArrow=classic;html=1;rounded=0;exitX=0.5;exitY=0.5;exitDx=0;exitDy=0;exitPerimeter=0;entryX=0.006;entryY=0.383;entryDx=0;entryDy=0;entryPerimeter=0;" edge="1" parent="1" source="rhQnzHztRZclSPktE8nI-1" target="rhQnzHztRZclSPktE8nI-2">
          <mxGeometry width="50" height="50" relative="1" as="geometry">
            <mxPoint x="224" y="325" as="sourcePoint" />
            <mxPoint x="274" y="275" as="targetPoint" />
          </mxGeometry>
        </mxCell>
        <mxCell id="rhQnzHztRZclSPktE8nI-4" value="" style="endArrow=classic;html=1;rounded=0;exitX=1;exitY=0.5;exitDx=0;exitDy=0;" edge="1" parent="1" source="rhQnzHztRZclSPktE8nI-2">
          <mxGeometry width="50" height="50" relative="1" as="geometry">
            <mxPoint x="224" y="325" as="sourcePoint" />
            <mxPoint x="304" y="215" as="targetPoint" />
          </mxGeometry>
        </mxCell>
        <mxCell id="rhQnzHztRZclSPktE8nI-5" value="&lt;b&gt;Retrieve and Display list of available Stakeholders contributing in a Vehicle Project&lt;/b&gt;" style="ellipse;whiteSpace=wrap;html=1;aspect=fixed;fillColor=#f8cecc;strokeColor=#b85450;" vertex="1" parent="1">
          <mxGeometry x="304" y="155" width="135" height="135" as="geometry" />
        </mxCell>
        <mxCell id="rhQnzHztRZclSPktE8nI-6" value="&lt;b&gt;&lt;u&gt;MICROSERVICE1&amp;nbsp;&lt;/u&gt;&lt;/b&gt;&lt;div&gt;&lt;b&gt;&lt;u&gt;StakeholdersService&lt;/u&gt;&lt;/b&gt;&lt;/div&gt;" style="text;html=1;strokeColor=#d6b656;fillColor=#fff2cc;align=center;verticalAlign=middle;whiteSpace=wrap;rounded=0;" vertex="1" parent="1">
          <mxGeometry x="460" y="165" width="141.5" height="40" as="geometry" />
        </mxCell>
        <mxCell id="rhQnzHztRZclSPktE8nI-7" value="&lt;b&gt;&lt;u&gt;API1&amp;nbsp;&amp;nbsp;&lt;/u&gt;&lt;/b&gt;&lt;div&gt;&lt;b&gt;&lt;u&gt;GetStakeholders&lt;/u&gt;&lt;/b&gt;&lt;/div&gt;" style="text;html=1;strokeColor=#d6b656;fillColor=#fff2cc;align=center;verticalAlign=middle;whiteSpace=wrap;rounded=0;" vertex="1" parent="1">
          <mxGeometry x="460" y="215" width="140" height="55" as="geometry" />
        </mxCell>
        <mxCell id="rhQnzHztRZclSPktE8nI-8" value="" style="endArrow=classic;html=1;rounded=0;" edge="1" parent="1">
          <mxGeometry width="50" height="50" relative="1" as="geometry">
            <mxPoint x="200" y="280" as="sourcePoint" />
            <mxPoint x="320" y="360" as="targetPoint" />
          </mxGeometry>
        </mxCell>
        <mxCell id="rhQnzHztRZclSPktE8nI-9" value="&lt;b&gt;Retrieve and Display the Collaborative Designs for the particular Stakeholder&lt;/b&gt;" style="ellipse;whiteSpace=wrap;html=1;aspect=fixed;fillColor=#f8cecc;strokeColor=#b85450;" vertex="1" parent="1">
          <mxGeometry x="315.5" y="310" width="130" height="130" as="geometry" />
        </mxCell>
        <mxCell id="rhQnzHztRZclSPktE8nI-10" value="&lt;b&gt;&lt;u&gt;MICROSERVICE2&amp;nbsp;&lt;/u&gt;&lt;/b&gt;&lt;div&gt;&lt;b&gt;&lt;u&gt;CollabDesign&lt;/u&gt;&lt;/b&gt;&lt;/div&gt;" style="text;html=1;strokeColor=#d6b656;fillColor=#fff2cc;align=center;verticalAlign=middle;whiteSpace=wrap;rounded=0;" vertex="1" parent="1">
          <mxGeometry x="470" y="320" width="141.5" height="40" as="geometry" />
        </mxCell>
        <mxCell id="rhQnzHztRZclSPktE8nI-11" value="&lt;b&gt;&lt;u&gt;API2&amp;nbsp;&amp;nbsp;&lt;/u&gt;&lt;/b&gt;&lt;div&gt;&lt;b&gt;&lt;u&gt;GetCollabDesigns&lt;/u&gt;&lt;/b&gt;&lt;/div&gt;" style="text;html=1;strokeColor=#d6b656;fillColor=#fff2cc;align=center;verticalAlign=middle;whiteSpace=wrap;rounded=0;" vertex="1" parent="1">
          <mxGeometry x="470" y="380" width="141.5" height="40" as="geometry" />
        </mxCell>
        <mxCell id="rhQnzHztRZclSPktE8nI-15" value="" style="edgeStyle=orthogonalEdgeStyle;rounded=0;orthogonalLoop=1;jettySize=auto;html=1;" edge="1" parent="1" source="rhQnzHztRZclSPktE8nI-16" target="rhQnzHztRZclSPktE8nI-19">
          <mxGeometry relative="1" as="geometry">
            <mxPoint x="508" y="685" as="targetPoint" />
          </mxGeometry>
        </mxCell>
        <mxCell id="rhQnzHztRZclSPktE8nI-16" value="&lt;b&gt;Call MakePayment API&lt;/b&gt;" style="rounded=1;whiteSpace=wrap;html=1;fillColor=#e1d5e7;strokeColor=#9673a6;" vertex="1" parent="1">
          <mxGeometry x="590" y="740" width="120" height="60" as="geometry" />
        </mxCell>
        <mxCell id="rhQnzHztRZclSPktE8nI-17" value="" style="ellipse;html=1;shape=endState;fillColor=#000000;strokeColor=#ff0000;" vertex="1" parent="1">
          <mxGeometry x="539" y="720" width="30" height="30" as="geometry" />
        </mxCell>
        <mxCell id="rhQnzHztRZclSPktE8nI-18" value="" style="edgeStyle=orthogonalEdgeStyle;rounded=0;orthogonalLoop=1;jettySize=auto;html=1;" edge="1" parent="1" source="rhQnzHztRZclSPktE8nI-19" target="rhQnzHztRZclSPktE8nI-17">
          <mxGeometry relative="1" as="geometry" />
        </mxCell>
        <mxCell id="rhQnzHztRZclSPktE8nI-19" value="&lt;span style=&quot;font-weight: 700;&quot;&gt;Notification Message to Customer (&lt;/span&gt;&lt;font face=&quot;Consolas, Courier New, monospace&quot; color=&quot;#a31515&quot;&gt;&lt;span style=&quot;font-size: 14px; white-space: pre; background-color: rgb(255, 255, 255);&quot;&gt;Payment&lt;/span&gt;&lt;/font&gt;&lt;div&gt;&lt;span style=&quot;background-color: rgb(255, 255, 255); font-size: 14px; white-space: pre; color: rgb(163, 21, 21); font-family: Consolas, &amp;quot;Courier New&amp;quot;, monospace;&quot;&gt; is &lt;/span&gt;&lt;span style=&quot;background-color: rgb(255, 255, 255); font-size: 14px; white-space: pre; color: rgb(163, 21, 21); font-family: Consolas, &amp;quot;Courier New&amp;quot;, monospace;&quot;&gt;successful or &lt;/span&gt;&lt;div&gt;&lt;div&gt;&lt;font face=&quot;Consolas, Courier New, monospace&quot; color=&quot;#a31515&quot;&gt;&lt;span style=&quot;font-size: 14px; white-space: pre; background-color: rgb(255, 255, 255);&quot;&gt;failed with &lt;/span&gt;&lt;/font&gt;&lt;/div&gt;&lt;div&gt;&lt;font face=&quot;Consolas, Courier New, monospace&quot; color=&quot;#a31515&quot;&gt;&lt;span style=&quot;font-size: 14px; white-space: pre; background-color: rgb(255, 255, 255);&quot;&gt;receipt&lt;/span&gt;&lt;/font&gt;&lt;span style=&quot;background-color: initial; font-weight: 700;&quot;&gt;)&lt;/span&gt;&lt;/div&gt;&lt;/div&gt;&lt;/div&gt;" style="rounded=1;whiteSpace=wrap;html=1;fillColor=#e1d5e7;strokeColor=#9673a6;" vertex="1" parent="1">
          <mxGeometry x="530" y="830" width="155" height="125" as="geometry" />
        </mxCell>
        <mxCell id="rhQnzHztRZclSPktE8nI-21" value="" style="endArrow=classic;html=1;rounded=0;exitX=1;exitY=0.5;exitDx=0;exitDy=0;" edge="1" parent="1" source="rhQnzHztRZclSPktE8nI-2">
          <mxGeometry width="50" height="50" relative="1" as="geometry">
            <mxPoint x="194" y="450" as="sourcePoint" />
            <mxPoint x="314" y="530" as="targetPoint" />
          </mxGeometry>
        </mxCell>
        <mxCell id="rhQnzHztRZclSPktE8nI-22" value="&lt;b&gt;Update Collab Design&lt;/b&gt;" style="ellipse;whiteSpace=wrap;html=1;aspect=fixed;fillColor=#f8cecc;strokeColor=#b85450;" vertex="1" parent="1">
          <mxGeometry x="309.5" y="480" width="130" height="130" as="geometry" />
        </mxCell>
        <mxCell id="rhQnzHztRZclSPktE8nI-23" value="&lt;b&gt;&lt;u&gt;MICROSERVICE2&amp;nbsp;&lt;/u&gt;&lt;/b&gt;&lt;div&gt;&lt;b&gt;&lt;u&gt;CollabDesign&lt;/u&gt;&lt;/b&gt;&lt;/div&gt;" style="text;html=1;strokeColor=#d6b656;fillColor=#fff2cc;align=center;verticalAlign=middle;whiteSpace=wrap;rounded=0;" vertex="1" parent="1">
          <mxGeometry x="120" y="525" width="141.5" height="40" as="geometry" />
        </mxCell>
        <mxCell id="rhQnzHztRZclSPktE8nI-24" value="&lt;b&gt;&lt;u&gt;API3&amp;nbsp;&lt;/u&gt;&lt;/b&gt;&lt;div&gt;&lt;b&gt;&lt;u&gt;UpdateCollabDesign&lt;/u&gt;&lt;/b&gt;&lt;/div&gt;" style="text;html=1;strokeColor=#d6b656;fillColor=#fff2cc;align=center;verticalAlign=middle;whiteSpace=wrap;rounded=0;" vertex="1" parent="1">
          <mxGeometry x="120" y="590" width="141.5" height="40" as="geometry" />
        </mxCell>
      </root>
    </mxGraphModel>
  </diagram>
</mxfile>
